<svg xmlns="http://www.w3.org/2000/svg" viewBox="0 0 32 32" fill="none">
  <!-- Simple lift mark — placeholder for Antigravity (agy) -->
  <path
    fill="#eef1f7"
    d="M16 4.25c.4 0 .78.2 1 .54l8.1 12.2a1.2 1.2 0 0 1-1 1.86h-3.35v4.9a1.2 1.2 0 0 1-1.2 1.2h-7.1a1.2 1.2 0 0 1-1.2-1.2v-4.9H7.9a1.2 1.2 0 0 1-1-1.86l8.1-12.2c.22-.34.6-.54 1-.54Zm0 3.4L10.7 16.05h2.85a1.2 1.2 0 0 1 1.2 1.2v4.9h2.5v-4.9a1.2 1.2 0 0 1 1.2-1.2h2.85L16 7.65Z"
  />
  <path
    fill="#a4adc0"
    d="M9.5 27.25h13a1.25 1.25 0 1 0 0-2.5h-13a1.25 1.25 0 1 0 0 2.5Z"
  />
</svg>
