<svg xmlns="http://www.w3.org/2000/svg" viewBox="0 0 32 32" fill="none">
  <!-- Nested braces monogram — Codex / OpenAI-style agents -->
  <path
    fill="#eef1f7"
    d="M11.2 6.25c-2.85 0-4.95 2.05-4.95 5.05v1.35c0 1.2-.4 2.05-1.35 2.85.95.8 1.35 1.65 1.35 2.85v1.35c0 3 2.1 5.05 4.95 5.05a1.25 1.25 0 1 0 0-2.5c-1.45 0-2.45-.95-2.45-2.55v-1.35c0-1.7-.55-2.9-1.85-3.75 1.3-.85 1.85-2.05 1.85-3.75V11.3c0-1.6 1-2.55 2.45-2.55a1.25 1.25 0 1 0 0-2.5Zm9.6 0a1.25 1.25 0 1 0 0 2.5c1.45 0 2.45.95 2.45 2.55v1.35c0 1.7.55 2.9 1.85 3.75-1.3.85-1.85 2.05-1.85 3.75v1.35c0 1.6-1 2.55-2.45 2.55a1.25 1.25 0 1 0 0 2.5c2.85 0 4.95-2.05 4.95-5.05v-1.35c0-1.2.4-2.05 1.35-2.85-.95-.8-1.35-1.65-1.35-2.85V11.3c0-3-2.1-5.05-4.95-5.05Z"
  />
  <circle cx="16" cy="16" r="1.6" fill="#86efac"/>
</svg>
